<mxfile host="app.diagrams.net" agent="Mozilla/5.0 (Windows NT 10.0; Win64; x64) AppleWebKit/537.36 (KHTML, like Gecko) Chrome/129.0.0.0 Safari/537.36" version="24.7.16">
  <diagram id="R2lEEEUBdFMjLlhIrx00" name="Page-1">
    <mxGraphModel dx="1035" dy="1662" grid="1" gridSize="10" guides="1" tooltips="1" connect="1" arrows="1" fold="1" page="1" pageScale="1" pageWidth="850" pageHeight="1100" math="0" shadow="0" extFonts="Permanent Marker^https://fonts.googleapis.com/css?family=Permanent+Marker">
      <root>
        <mxCell id="0" />
        <mxCell id="1" parent="0" />
        <mxCell id="8A_3W3rXBTb7RAuILj-C-2" value="Include" style="rhombus;whiteSpace=wrap;html=1;" vertex="1" parent="1">
          <mxGeometry x="680" y="20" width="105" height="100" as="geometry" />
        </mxCell>
        <mxCell id="8A_3W3rXBTb7RAuILj-C-4" value="Candidate" style="rounded=1;whiteSpace=wrap;html=1;" vertex="1" parent="1">
          <mxGeometry x="860" y="130" width="120" height="60" as="geometry" />
        </mxCell>
        <mxCell id="8A_3W3rXBTb7RAuILj-C-5" value="ID" style="ellipse;whiteSpace=wrap;html=1;" vertex="1" parent="1">
          <mxGeometry x="960" y="20" width="120" height="50" as="geometry" />
        </mxCell>
        <mxCell id="8A_3W3rXBTb7RAuILj-C-6" value="Image" style="ellipse;whiteSpace=wrap;html=1;" vertex="1" parent="1">
          <mxGeometry x="1020" y="90" width="120" height="50" as="geometry" />
        </mxCell>
        <mxCell id="8A_3W3rXBTb7RAuILj-C-7" value="Name" style="ellipse;whiteSpace=wrap;html=1;" vertex="1" parent="1">
          <mxGeometry x="1020" y="170" width="120" height="50" as="geometry" />
        </mxCell>
        <mxCell id="8A_3W3rXBTb7RAuILj-C-8" value="RollNo" style="ellipse;whiteSpace=wrap;html=1;" vertex="1" parent="1">
          <mxGeometry x="960" y="250" width="120" height="60" as="geometry" />
        </mxCell>
        <mxCell id="8A_3W3rXBTb7RAuILj-C-9" value="Vote" style="rhombus;whiteSpace=wrap;html=1;" vertex="1" parent="1">
          <mxGeometry x="100" y="40" width="120" height="100" as="geometry" />
        </mxCell>
        <mxCell id="8A_3W3rXBTb7RAuILj-C-11" value="User" style="rounded=1;whiteSpace=wrap;html=1;" vertex="1" parent="1">
          <mxGeometry x="240" y="210" width="120" height="60" as="geometry" />
        </mxCell>
        <mxCell id="8A_3W3rXBTb7RAuILj-C-12" value="Has" style="rhombus;whiteSpace=wrap;html=1;" vertex="1" parent="1">
          <mxGeometry x="150" y="320" width="100" height="90" as="geometry" />
        </mxCell>
        <mxCell id="8A_3W3rXBTb7RAuILj-C-13" value="Login" style="rounded=1;whiteSpace=wrap;html=1;" vertex="1" parent="1">
          <mxGeometry x="240" y="430" width="120" height="60" as="geometry" />
        </mxCell>
        <mxCell id="8A_3W3rXBTb7RAuILj-C-14" value="Password" style="ellipse;whiteSpace=wrap;html=1;" vertex="1" parent="1">
          <mxGeometry x="40" y="510" width="120" height="60" as="geometry" />
        </mxCell>
        <mxCell id="8A_3W3rXBTb7RAuILj-C-15" value="UserName" style="ellipse;whiteSpace=wrap;html=1;" vertex="1" parent="1">
          <mxGeometry x="40" y="390" width="120" height="70" as="geometry" />
        </mxCell>
        <mxCell id="8A_3W3rXBTb7RAuILj-C-16" value="Student" style="rounded=1;whiteSpace=wrap;html=1;" vertex="1" parent="1">
          <mxGeometry x="325" y="710" width="120" height="60" as="geometry" />
        </mxCell>
        <mxCell id="8A_3W3rXBTb7RAuILj-C-17" value="Fill Details" style="rhombus;whiteSpace=wrap;html=1;" vertex="1" parent="1">
          <mxGeometry x="360" y="320" width="95" height="90" as="geometry" />
        </mxCell>
        <mxCell id="8A_3W3rXBTb7RAuILj-C-18" value="Mobile No" style="ellipse;whiteSpace=wrap;html=1;" vertex="1" parent="1">
          <mxGeometry x="180" y="800" width="120" height="70" as="geometry" />
        </mxCell>
        <mxCell id="8A_3W3rXBTb7RAuILj-C-19" value="RollNo" style="ellipse;whiteSpace=wrap;html=1;" vertex="1" parent="1">
          <mxGeometry x="100" y="700" width="120" height="70" as="geometry" />
        </mxCell>
        <mxCell id="8A_3W3rXBTb7RAuILj-C-20" value="Name" style="ellipse;whiteSpace=wrap;html=1;" vertex="1" parent="1">
          <mxGeometry x="160" y="620" width="120" height="60" as="geometry" />
        </mxCell>
        <mxCell id="8A_3W3rXBTb7RAuILj-C-21" value="Recive" style="rhombus;whiteSpace=wrap;html=1;" vertex="1" parent="1">
          <mxGeometry x="335" y="800" width="110" height="100" as="geometry" />
        </mxCell>
        <mxCell id="8A_3W3rXBTb7RAuILj-C-22" value="SMS" style="rounded=1;whiteSpace=wrap;html=1;" vertex="1" parent="1">
          <mxGeometry x="330" y="940" width="120" height="60" as="geometry" />
        </mxCell>
        <mxCell id="8A_3W3rXBTb7RAuILj-C-23" value="Mobile No" style="ellipse;whiteSpace=wrap;html=1;" vertex="1" parent="1">
          <mxGeometry x="200" y="1000" width="120" height="70" as="geometry" />
        </mxCell>
        <mxCell id="8A_3W3rXBTb7RAuILj-C-25" value="View" style="rhombus;whiteSpace=wrap;html=1;" vertex="1" parent="1">
          <mxGeometry x="240" y="100" width="110" height="90" as="geometry" />
        </mxCell>
        <mxCell id="8A_3W3rXBTb7RAuILj-C-27" value="Event" style="rounded=1;whiteSpace=wrap;html=1;" vertex="1" parent="1">
          <mxGeometry x="460" y="110" width="120" height="60" as="geometry" />
        </mxCell>
        <mxCell id="8A_3W3rXBTb7RAuILj-C-28" value="Add" style="rhombus;whiteSpace=wrap;html=1;" vertex="1" parent="1">
          <mxGeometry x="650" y="300" width="100" height="90" as="geometry" />
        </mxCell>
        <mxCell id="8A_3W3rXBTb7RAuILj-C-29" value="Delete" style="rhombus;whiteSpace=wrap;html=1;" vertex="1" parent="1">
          <mxGeometry x="870" y="300" width="90" height="90" as="geometry" />
        </mxCell>
        <mxCell id="8A_3W3rXBTb7RAuILj-C-30" value="Edit" style="rhombus;whiteSpace=wrap;html=1;" vertex="1" parent="1">
          <mxGeometry x="760" y="300" width="90" height="90" as="geometry" />
        </mxCell>
        <mxCell id="8A_3W3rXBTb7RAuILj-C-31" value="Admin" style="rounded=1;whiteSpace=wrap;html=1;" vertex="1" parent="1">
          <mxGeometry x="745" y="470" width="120" height="60" as="geometry" />
        </mxCell>
        <mxCell id="8A_3W3rXBTb7RAuILj-C-32" value="Has" style="rhombus;whiteSpace=wrap;html=1;direction=south;" vertex="1" parent="1">
          <mxGeometry x="765" y="600" width="100" height="90" as="geometry" />
        </mxCell>
        <mxCell id="8A_3W3rXBTb7RAuILj-C-33" value="Login" style="rounded=1;whiteSpace=wrap;html=1;" vertex="1" parent="1">
          <mxGeometry x="755" y="770" width="120" height="60" as="geometry" />
        </mxCell>
        <mxCell id="8A_3W3rXBTb7RAuILj-C-34" value="View" style="rhombus;whiteSpace=wrap;html=1;" vertex="1" parent="1">
          <mxGeometry x="990" y="460" width="110" height="90" as="geometry" />
        </mxCell>
        <mxCell id="8A_3W3rXBTb7RAuILj-C-35" value="Result" style="rounded=1;whiteSpace=wrap;html=1;" vertex="1" parent="1">
          <mxGeometry x="985" y="620" width="120" height="60" as="geometry" />
        </mxCell>
        <mxCell id="8A_3W3rXBTb7RAuILj-C-37" value="Count" style="ellipse;whiteSpace=wrap;html=1;" vertex="1" parent="1">
          <mxGeometry x="990" y="810" width="120" height="80" as="geometry" />
        </mxCell>
        <mxCell id="8A_3W3rXBTb7RAuILj-C-38" value="UserName" style="ellipse;whiteSpace=wrap;html=1;" vertex="1" parent="1">
          <mxGeometry x="590" y="770" width="120" height="80" as="geometry" />
        </mxCell>
        <mxCell id="8A_3W3rXBTb7RAuILj-C-40" value="Password" style="ellipse;whiteSpace=wrap;html=1;" vertex="1" parent="1">
          <mxGeometry x="760" y="890" width="120" height="80" as="geometry" />
        </mxCell>
        <mxCell id="8A_3W3rXBTb7RAuILj-C-41" value="Candidate" style="ellipse;whiteSpace=wrap;html=1;" vertex="1" parent="1">
          <mxGeometry x="1070" y="710" width="120" height="80" as="geometry" />
        </mxCell>
        <mxCell id="8A_3W3rXBTb7RAuILj-C-42" value="Event" style="ellipse;whiteSpace=wrap;html=1;" vertex="1" parent="1">
          <mxGeometry x="890" y="720" width="120" height="80" as="geometry" />
        </mxCell>
        <mxCell id="8A_3W3rXBTb7RAuILj-C-45" value="" style="endArrow=none;html=1;rounded=0;entryX=0;entryY=0.5;entryDx=0;entryDy=0;exitX=0.5;exitY=0;exitDx=0;exitDy=0;" edge="1" parent="1" source="8A_3W3rXBTb7RAuILj-C-12" target="8A_3W3rXBTb7RAuILj-C-11">
          <mxGeometry width="50" height="50" relative="1" as="geometry">
            <mxPoint x="190" y="270" as="sourcePoint" />
            <mxPoint x="240" y="220" as="targetPoint" />
            <Array as="points">
              <mxPoint x="200" y="240" />
              <mxPoint x="220" y="240" />
            </Array>
          </mxGeometry>
        </mxCell>
        <mxCell id="8A_3W3rXBTb7RAuILj-C-50" value="" style="endArrow=none;html=1;rounded=0;entryX=1;entryY=0.5;entryDx=0;entryDy=0;" edge="1" parent="1" target="8A_3W3rXBTb7RAuILj-C-11">
          <mxGeometry width="50" height="50" relative="1" as="geometry">
            <mxPoint x="410" y="320" as="sourcePoint" />
            <mxPoint x="460" y="270" as="targetPoint" />
            <Array as="points">
              <mxPoint x="410" y="240" />
            </Array>
          </mxGeometry>
        </mxCell>
        <mxCell id="8A_3W3rXBTb7RAuILj-C-55" value="" style="endArrow=none;html=1;rounded=0;entryX=1;entryY=0.5;entryDx=0;entryDy=0;" edge="1" parent="1" target="8A_3W3rXBTb7RAuILj-C-12">
          <mxGeometry width="50" height="50" relative="1" as="geometry">
            <mxPoint x="280" y="430" as="sourcePoint" />
            <mxPoint x="330" y="380" as="targetPoint" />
            <Array as="points">
              <mxPoint x="280" y="365" />
            </Array>
          </mxGeometry>
        </mxCell>
        <mxCell id="8A_3W3rXBTb7RAuILj-C-56" value="" style="endArrow=none;html=1;rounded=0;" edge="1" parent="1" source="8A_3W3rXBTb7RAuILj-C-15">
          <mxGeometry width="50" height="50" relative="1" as="geometry">
            <mxPoint x="190" y="500" as="sourcePoint" />
            <mxPoint x="240" y="450" as="targetPoint" />
          </mxGeometry>
        </mxCell>
        <mxCell id="8A_3W3rXBTb7RAuILj-C-57" value="" style="endArrow=none;html=1;rounded=0;exitX=1;exitY=0;exitDx=0;exitDy=0;" edge="1" parent="1" source="8A_3W3rXBTb7RAuILj-C-14">
          <mxGeometry width="50" height="50" relative="1" as="geometry">
            <mxPoint x="190" y="525" as="sourcePoint" />
            <mxPoint x="240" y="475" as="targetPoint" />
          </mxGeometry>
        </mxCell>
        <mxCell id="8A_3W3rXBTb7RAuILj-C-58" value="" style="endArrow=none;html=1;rounded=0;" edge="1" parent="1">
          <mxGeometry width="50" height="50" relative="1" as="geometry">
            <mxPoint x="410" y="710" as="sourcePoint" />
            <mxPoint x="410" y="410" as="targetPoint" />
          </mxGeometry>
        </mxCell>
        <mxCell id="8A_3W3rXBTb7RAuILj-C-60" value="" style="endArrow=none;html=1;rounded=0;exitX=1;exitY=0.667;exitDx=0;exitDy=0;exitPerimeter=0;" edge="1" parent="1" source="8A_3W3rXBTb7RAuILj-C-20">
          <mxGeometry width="50" height="50" relative="1" as="geometry">
            <mxPoint x="280" y="760" as="sourcePoint" />
            <mxPoint x="330" y="710" as="targetPoint" />
          </mxGeometry>
        </mxCell>
        <mxCell id="8A_3W3rXBTb7RAuILj-C-61" value="" style="endArrow=none;html=1;rounded=0;exitX=1;exitY=0.5;exitDx=0;exitDy=0;" edge="1" parent="1" source="8A_3W3rXBTb7RAuILj-C-19">
          <mxGeometry width="50" height="50" relative="1" as="geometry">
            <mxPoint x="280" y="785" as="sourcePoint" />
            <mxPoint x="330" y="735" as="targetPoint" />
          </mxGeometry>
        </mxCell>
        <mxCell id="8A_3W3rXBTb7RAuILj-C-62" value="" style="endArrow=none;html=1;rounded=0;exitX=0.792;exitY=0.086;exitDx=0;exitDy=0;exitPerimeter=0;" edge="1" parent="1" source="8A_3W3rXBTb7RAuILj-C-18">
          <mxGeometry width="50" height="50" relative="1" as="geometry">
            <mxPoint x="280" y="800" as="sourcePoint" />
            <mxPoint x="325" y="760" as="targetPoint" />
          </mxGeometry>
        </mxCell>
        <mxCell id="8A_3W3rXBTb7RAuILj-C-64" value="" style="endArrow=none;html=1;rounded=0;" edge="1" parent="1">
          <mxGeometry width="50" height="50" relative="1" as="geometry">
            <mxPoint x="390" y="800" as="sourcePoint" />
            <mxPoint x="390" y="770" as="targetPoint" />
          </mxGeometry>
        </mxCell>
        <mxCell id="8A_3W3rXBTb7RAuILj-C-65" value="" style="endArrow=none;html=1;rounded=0;exitX=0.5;exitY=0;exitDx=0;exitDy=0;" edge="1" parent="1" source="8A_3W3rXBTb7RAuILj-C-22" target="8A_3W3rXBTb7RAuILj-C-21">
          <mxGeometry width="50" height="50" relative="1" as="geometry">
            <mxPoint x="390" y="930" as="sourcePoint" />
            <mxPoint x="445" y="890" as="targetPoint" />
          </mxGeometry>
        </mxCell>
        <mxCell id="8A_3W3rXBTb7RAuILj-C-66" value="" style="endArrow=none;html=1;rounded=0;exitX=0.667;exitY=-0.029;exitDx=0;exitDy=0;exitPerimeter=0;" edge="1" parent="1" source="8A_3W3rXBTb7RAuILj-C-23">
          <mxGeometry width="50" height="50" relative="1" as="geometry">
            <mxPoint x="280" y="1010" as="sourcePoint" />
            <mxPoint x="330" y="960" as="targetPoint" />
          </mxGeometry>
        </mxCell>
        <mxCell id="8A_3W3rXBTb7RAuILj-C-67" value="Add" style="rhombus;whiteSpace=wrap;html=1;" vertex="1" parent="1">
          <mxGeometry x="580" y="400" width="100" height="90" as="geometry" />
        </mxCell>
        <mxCell id="8A_3W3rXBTb7RAuILj-C-68" value="Edit" style="rhombus;whiteSpace=wrap;html=1;" vertex="1" parent="1">
          <mxGeometry x="580" y="505" width="100" height="90" as="geometry" />
        </mxCell>
        <mxCell id="8A_3W3rXBTb7RAuILj-C-69" value="Delete" style="rhombus;whiteSpace=wrap;html=1;" vertex="1" parent="1">
          <mxGeometry x="590" y="610" width="100" height="90" as="geometry" />
        </mxCell>
        <mxCell id="8A_3W3rXBTb7RAuILj-C-70" value="" style="endArrow=none;html=1;rounded=0;entryX=0.5;entryY=1;entryDx=0;entryDy=0;exitX=0.5;exitY=0;exitDx=0;exitDy=0;" edge="1" parent="1" source="8A_3W3rXBTb7RAuILj-C-31" target="8A_3W3rXBTb7RAuILj-C-30">
          <mxGeometry width="50" height="50" relative="1" as="geometry">
            <mxPoint x="800" y="470" as="sourcePoint" />
            <mxPoint x="850" y="420" as="targetPoint" />
          </mxGeometry>
        </mxCell>
        <mxCell id="8A_3W3rXBTb7RAuILj-C-71" value="" style="endArrow=none;html=1;rounded=0;entryX=0.5;entryY=1;entryDx=0;entryDy=0;" edge="1" parent="1" target="8A_3W3rXBTb7RAuILj-C-29">
          <mxGeometry width="50" height="50" relative="1" as="geometry">
            <mxPoint x="850" y="470" as="sourcePoint" />
            <mxPoint x="850" y="420" as="targetPoint" />
            <Array as="points">
              <mxPoint x="850" y="390" />
            </Array>
          </mxGeometry>
        </mxCell>
        <mxCell id="8A_3W3rXBTb7RAuILj-C-72" value="" style="endArrow=none;html=1;rounded=0;entryX=0.5;entryY=1;entryDx=0;entryDy=0;" edge="1" parent="1" target="8A_3W3rXBTb7RAuILj-C-28">
          <mxGeometry width="50" height="50" relative="1" as="geometry">
            <mxPoint x="765" y="470" as="sourcePoint" />
            <mxPoint x="815" y="420" as="targetPoint" />
            <Array as="points">
              <mxPoint x="765" y="390" />
            </Array>
          </mxGeometry>
        </mxCell>
        <mxCell id="8A_3W3rXBTb7RAuILj-C-73" value="" style="endArrow=none;html=1;rounded=0;exitX=0.98;exitY=0.433;exitDx=0;exitDy=0;exitPerimeter=0;" edge="1" parent="1" source="8A_3W3rXBTb7RAuILj-C-67">
          <mxGeometry width="50" height="50" relative="1" as="geometry">
            <mxPoint x="680" y="430" as="sourcePoint" />
            <mxPoint x="750" y="475" as="targetPoint" />
            <Array as="points">
              <mxPoint x="750" y="440" />
            </Array>
          </mxGeometry>
        </mxCell>
        <mxCell id="8A_3W3rXBTb7RAuILj-C-75" value="" style="endArrow=none;html=1;rounded=0;exitX=1;exitY=0.5;exitDx=0;exitDy=0;" edge="1" parent="1" source="8A_3W3rXBTb7RAuILj-C-68">
          <mxGeometry width="50" height="50" relative="1" as="geometry">
            <mxPoint x="695" y="550" as="sourcePoint" />
            <mxPoint x="745" y="500" as="targetPoint" />
            <Array as="points">
              <mxPoint x="680" y="500" />
            </Array>
          </mxGeometry>
        </mxCell>
        <mxCell id="8A_3W3rXBTb7RAuILj-C-76" value="" style="endArrow=none;html=1;rounded=0;exitX=0.94;exitY=0.567;exitDx=0;exitDy=0;exitPerimeter=0;" edge="1" parent="1" source="8A_3W3rXBTb7RAuILj-C-69">
          <mxGeometry width="50" height="50" relative="1" as="geometry">
            <mxPoint x="710" y="580" as="sourcePoint" />
            <mxPoint x="760" y="530" as="targetPoint" />
            <Array as="points">
              <mxPoint x="760" y="661" />
            </Array>
          </mxGeometry>
        </mxCell>
        <mxCell id="8A_3W3rXBTb7RAuILj-C-77" value="" style="endArrow=none;html=1;rounded=0;" edge="1" parent="1" source="8A_3W3rXBTb7RAuILj-C-32">
          <mxGeometry width="50" height="50" relative="1" as="geometry">
            <mxPoint x="765" y="580" as="sourcePoint" />
            <mxPoint x="815" y="530" as="targetPoint" />
          </mxGeometry>
        </mxCell>
        <mxCell id="8A_3W3rXBTb7RAuILj-C-80" value="" style="endArrow=none;html=1;rounded=0;exitX=0.5;exitY=0;exitDx=0;exitDy=0;" edge="1" parent="1" source="8A_3W3rXBTb7RAuILj-C-33">
          <mxGeometry width="50" height="50" relative="1" as="geometry">
            <mxPoint x="765" y="740" as="sourcePoint" />
            <mxPoint x="815" y="690" as="targetPoint" />
          </mxGeometry>
        </mxCell>
        <mxCell id="8A_3W3rXBTb7RAuILj-C-81" value="" style="endArrow=none;html=1;rounded=0;entryX=0;entryY=0.25;entryDx=0;entryDy=0;" edge="1" parent="1" source="8A_3W3rXBTb7RAuILj-C-38" target="8A_3W3rXBTb7RAuILj-C-33">
          <mxGeometry width="50" height="50" relative="1" as="geometry">
            <mxPoint x="705" y="825" as="sourcePoint" />
            <mxPoint x="755" y="775" as="targetPoint" />
            <Array as="points">
              <mxPoint x="740" y="790" />
            </Array>
          </mxGeometry>
        </mxCell>
        <mxCell id="8A_3W3rXBTb7RAuILj-C-84" value="" style="endArrow=none;html=1;rounded=0;exitX=0.5;exitY=0;exitDx=0;exitDy=0;entryX=0.5;entryY=1;entryDx=0;entryDy=0;" edge="1" parent="1" source="8A_3W3rXBTb7RAuILj-C-35" target="8A_3W3rXBTb7RAuILj-C-34">
          <mxGeometry width="50" height="50" relative="1" as="geometry">
            <mxPoint x="990" y="590" as="sourcePoint" />
            <mxPoint x="1040" y="540" as="targetPoint" />
          </mxGeometry>
        </mxCell>
        <mxCell id="8A_3W3rXBTb7RAuILj-C-85" value="" style="endArrow=none;html=1;rounded=0;entryX=0;entryY=0.5;entryDx=0;entryDy=0;" edge="1" parent="1" target="8A_3W3rXBTb7RAuILj-C-34">
          <mxGeometry width="50" height="50" relative="1" as="geometry">
            <mxPoint x="865" y="505" as="sourcePoint" />
            <mxPoint x="915" y="455" as="targetPoint" />
          </mxGeometry>
        </mxCell>
        <mxCell id="8A_3W3rXBTb7RAuILj-C-86" value="" style="endArrow=none;html=1;rounded=0;" edge="1" parent="1">
          <mxGeometry width="50" height="50" relative="1" as="geometry">
            <mxPoint x="985" y="730" as="sourcePoint" />
            <mxPoint x="1035" y="680" as="targetPoint" />
          </mxGeometry>
        </mxCell>
        <mxCell id="8A_3W3rXBTb7RAuILj-C-87" value="" style="endArrow=none;html=1;rounded=0;" edge="1" parent="1" source="8A_3W3rXBTb7RAuILj-C-41">
          <mxGeometry width="50" height="50" relative="1" as="geometry">
            <mxPoint x="1030" y="730" as="sourcePoint" />
            <mxPoint x="1080" y="680" as="targetPoint" />
          </mxGeometry>
        </mxCell>
        <mxCell id="8A_3W3rXBTb7RAuILj-C-88" value="" style="endArrow=none;html=1;rounded=0;exitX=0.5;exitY=0;exitDx=0;exitDy=0;" edge="1" parent="1" source="8A_3W3rXBTb7RAuILj-C-37">
          <mxGeometry width="50" height="50" relative="1" as="geometry">
            <mxPoint x="1005" y="730" as="sourcePoint" />
            <mxPoint x="1055" y="680" as="targetPoint" />
          </mxGeometry>
        </mxCell>
        <mxCell id="8A_3W3rXBTb7RAuILj-C-89" value="" style="endArrow=none;html=1;rounded=0;entryX=0.433;entryY=1;entryDx=0;entryDy=0;entryPerimeter=0;" edge="1" parent="1" target="8A_3W3rXBTb7RAuILj-C-5">
          <mxGeometry width="50" height="50" relative="1" as="geometry">
            <mxPoint x="940" y="130" as="sourcePoint" />
            <mxPoint x="1000" y="80" as="targetPoint" />
          </mxGeometry>
        </mxCell>
        <mxCell id="8A_3W3rXBTb7RAuILj-C-91" value="" style="endArrow=none;html=1;rounded=0;exitX=1;exitY=0.333;exitDx=0;exitDy=0;exitPerimeter=0;" edge="1" parent="1" source="8A_3W3rXBTb7RAuILj-C-4">
          <mxGeometry width="50" height="50" relative="1" as="geometry">
            <mxPoint x="985" y="170" as="sourcePoint" />
            <mxPoint x="1030" y="130" as="targetPoint" />
            <Array as="points" />
          </mxGeometry>
        </mxCell>
        <mxCell id="8A_3W3rXBTb7RAuILj-C-92" value="" style="endArrow=none;html=1;rounded=0;" edge="1" parent="1" source="8A_3W3rXBTb7RAuILj-C-8">
          <mxGeometry width="50" height="50" relative="1" as="geometry">
            <mxPoint x="910" y="240" as="sourcePoint" />
            <mxPoint x="960" y="190" as="targetPoint" />
          </mxGeometry>
        </mxCell>
        <mxCell id="8A_3W3rXBTb7RAuILj-C-93" value="" style="endArrow=none;html=1;rounded=0;exitX=1;exitY=0.75;exitDx=0;exitDy=0;" edge="1" parent="1" source="8A_3W3rXBTb7RAuILj-C-4">
          <mxGeometry width="50" height="50" relative="1" as="geometry">
            <mxPoint x="970" y="240" as="sourcePoint" />
            <mxPoint x="1020" y="190" as="targetPoint" />
          </mxGeometry>
        </mxCell>
        <mxCell id="8A_3W3rXBTb7RAuILj-C-95" value="" style="endArrow=none;html=1;rounded=0;" edge="1" parent="1" source="8A_3W3rXBTb7RAuILj-C-40">
          <mxGeometry width="50" height="50" relative="1" as="geometry">
            <mxPoint x="765" y="880" as="sourcePoint" />
            <mxPoint x="815" y="830" as="targetPoint" />
          </mxGeometry>
        </mxCell>
        <mxCell id="8A_3W3rXBTb7RAuILj-C-96" value="" style="endArrow=none;html=1;rounded=0;entryX=0.417;entryY=1.017;entryDx=0;entryDy=0;entryPerimeter=0;" edge="1" parent="1" target="8A_3W3rXBTb7RAuILj-C-4">
          <mxGeometry width="50" height="50" relative="1" as="geometry">
            <mxPoint x="910" y="305" as="sourcePoint" />
            <mxPoint x="960" y="255" as="targetPoint" />
          </mxGeometry>
        </mxCell>
        <mxCell id="8A_3W3rXBTb7RAuILj-C-97" value="" style="endArrow=none;html=1;rounded=0;entryX=0;entryY=0.75;entryDx=0;entryDy=0;" edge="1" parent="1" target="8A_3W3rXBTb7RAuILj-C-4">
          <mxGeometry width="50" height="50" relative="1" as="geometry">
            <mxPoint x="810" y="300" as="sourcePoint" />
            <mxPoint x="860" y="250" as="targetPoint" />
            <Array as="points">
              <mxPoint x="810" y="175" />
            </Array>
          </mxGeometry>
        </mxCell>
        <mxCell id="8A_3W3rXBTb7RAuILj-C-98" value="" style="endArrow=none;html=1;rounded=0;entryX=0;entryY=0.25;entryDx=0;entryDy=0;" edge="1" parent="1" target="8A_3W3rXBTb7RAuILj-C-4">
          <mxGeometry width="50" height="50" relative="1" as="geometry">
            <mxPoint x="700" y="300" as="sourcePoint" />
            <mxPoint x="750" y="250" as="targetPoint" />
            <Array as="points">
              <mxPoint x="700" y="145" />
            </Array>
          </mxGeometry>
        </mxCell>
        <mxCell id="8A_3W3rXBTb7RAuILj-C-99" value="" style="endArrow=none;html=1;rounded=0;exitX=0.5;exitY=1;exitDx=0;exitDy=0;" edge="1" parent="1" source="8A_3W3rXBTb7RAuILj-C-27">
          <mxGeometry width="50" height="50" relative="1" as="geometry">
            <mxPoint x="540" y="700" as="sourcePoint" />
            <mxPoint x="590" y="656" as="targetPoint" />
            <Array as="points">
              <mxPoint x="520" y="656" />
            </Array>
          </mxGeometry>
        </mxCell>
        <mxCell id="8A_3W3rXBTb7RAuILj-C-100" value="" style="endArrow=none;html=1;rounded=0;entryX=1;entryY=0.5;entryDx=0;entryDy=0;" edge="1" parent="1" target="8A_3W3rXBTb7RAuILj-C-27">
          <mxGeometry width="50" height="50" relative="1" as="geometry">
            <mxPoint x="630" y="400" as="sourcePoint" />
            <mxPoint x="680" y="350" as="targetPoint" />
            <Array as="points">
              <mxPoint x="630" y="140" />
            </Array>
          </mxGeometry>
        </mxCell>
        <mxCell id="8A_3W3rXBTb7RAuILj-C-101" value="" style="endArrow=none;html=1;rounded=0;exitX=0.833;exitY=1.033;exitDx=0;exitDy=0;exitPerimeter=0;" edge="1" parent="1" source="8A_3W3rXBTb7RAuILj-C-27">
          <mxGeometry width="50" height="50" relative="1" as="geometry">
            <mxPoint x="530" y="600" as="sourcePoint" />
            <mxPoint x="580" y="550" as="targetPoint" />
            <Array as="points">
              <mxPoint x="560" y="470" />
              <mxPoint x="560" y="550" />
            </Array>
          </mxGeometry>
        </mxCell>
        <mxCell id="8A_3W3rXBTb7RAuILj-C-103" value="" style="endArrow=none;html=1;rounded=0;" edge="1" parent="1" target="8A_3W3rXBTb7RAuILj-C-25">
          <mxGeometry width="50" height="50" relative="1" as="geometry">
            <mxPoint x="295" y="208" as="sourcePoint" />
            <mxPoint x="350" y="160" as="targetPoint" />
          </mxGeometry>
        </mxCell>
        <mxCell id="8A_3W3rXBTb7RAuILj-C-104" value="" style="endArrow=none;html=1;rounded=0;entryX=-0.017;entryY=0.65;entryDx=0;entryDy=0;entryPerimeter=0;" edge="1" parent="1" target="8A_3W3rXBTb7RAuILj-C-27">
          <mxGeometry width="50" height="50" relative="1" as="geometry">
            <mxPoint x="350" y="150" as="sourcePoint" />
            <mxPoint x="400" y="100" as="targetPoint" />
          </mxGeometry>
        </mxCell>
        <mxCell id="8A_3W3rXBTb7RAuILj-C-106" value="" style="endArrow=none;html=1;rounded=0;entryX=0;entryY=0.5;entryDx=0;entryDy=0;" edge="1" parent="1" target="8A_3W3rXBTb7RAuILj-C-2">
          <mxGeometry width="50" height="50" relative="1" as="geometry">
            <mxPoint x="520" y="110" as="sourcePoint" />
            <mxPoint x="570" y="60" as="targetPoint" />
            <Array as="points">
              <mxPoint x="520" y="70" />
            </Array>
          </mxGeometry>
        </mxCell>
        <mxCell id="8A_3W3rXBTb7RAuILj-C-107" value="" style="endArrow=none;html=1;rounded=0;exitX=0.5;exitY=1;exitDx=0;exitDy=0;" edge="1" parent="1" source="8A_3W3rXBTb7RAuILj-C-9">
          <mxGeometry width="50" height="50" relative="1" as="geometry">
            <mxPoint x="190" y="270" as="sourcePoint" />
            <mxPoint x="240" y="220" as="targetPoint" />
            <Array as="points">
              <mxPoint x="160" y="220" />
            </Array>
          </mxGeometry>
        </mxCell>
        <mxCell id="8A_3W3rXBTb7RAuILj-C-109" value="" style="endArrow=none;html=1;rounded=0;entryX=0.5;entryY=0;entryDx=0;entryDy=0;exitX=0.5;exitY=0;exitDx=0;exitDy=0;" edge="1" parent="1" source="8A_3W3rXBTb7RAuILj-C-9" target="8A_3W3rXBTb7RAuILj-C-4">
          <mxGeometry width="50" height="50" relative="1" as="geometry">
            <mxPoint x="160" y="20" as="sourcePoint" />
            <mxPoint x="920" y="110" as="targetPoint" />
            <Array as="points">
              <mxPoint x="160" y="-10" />
              <mxPoint x="200" y="-10" />
              <mxPoint x="250" y="-10" />
              <mxPoint x="350" y="-10" />
              <mxPoint x="540" y="-10" />
              <mxPoint x="630" y="-10" />
              <mxPoint x="720" y="-10" />
              <mxPoint x="920" y="-10" />
            </Array>
          </mxGeometry>
        </mxCell>
        <mxCell id="8A_3W3rXBTb7RAuILj-C-110" value="1" style="text;html=1;align=center;verticalAlign=middle;resizable=0;points=[];autosize=1;strokeColor=none;fillColor=none;" vertex="1" parent="1">
          <mxGeometry x="215" y="188" width="30" height="30" as="geometry" />
        </mxCell>
        <mxCell id="8A_3W3rXBTb7RAuILj-C-111" value="1" style="text;html=1;align=center;verticalAlign=middle;resizable=0;points=[];autosize=1;strokeColor=none;fillColor=none;" vertex="1" parent="1">
          <mxGeometry x="215" y="238" width="30" height="30" as="geometry" />
        </mxCell>
        <mxCell id="8A_3W3rXBTb7RAuILj-C-112" value="1" style="text;html=1;align=center;verticalAlign=middle;resizable=0;points=[];autosize=1;strokeColor=none;fillColor=none;" vertex="1" parent="1">
          <mxGeometry x="275" y="398" width="30" height="30" as="geometry" />
        </mxCell>
        <mxCell id="8A_3W3rXBTb7RAuILj-C-113" value="1" style="text;html=1;align=center;verticalAlign=middle;resizable=0;points=[];autosize=1;strokeColor=none;fillColor=none;" vertex="1" parent="1">
          <mxGeometry x="285" y="188" width="30" height="30" as="geometry" />
        </mxCell>
        <mxCell id="8A_3W3rXBTb7RAuILj-C-114" value="M" style="text;html=1;align=center;verticalAlign=middle;resizable=0;points=[];autosize=1;strokeColor=none;fillColor=none;" vertex="1" parent="1">
          <mxGeometry x="425" y="118" width="30" height="30" as="geometry" />
        </mxCell>
        <mxCell id="8A_3W3rXBTb7RAuILj-C-115" value="1" style="text;html=1;align=center;verticalAlign=middle;resizable=0;points=[];autosize=1;strokeColor=none;fillColor=none;" vertex="1" parent="1">
          <mxGeometry x="355" y="208" width="30" height="30" as="geometry" />
        </mxCell>
        <mxCell id="8A_3W3rXBTb7RAuILj-C-116" value="M" style="text;html=1;align=center;verticalAlign=middle;resizable=0;points=[];autosize=1;strokeColor=none;fillColor=none;" vertex="1" parent="1">
          <mxGeometry x="405" y="678" width="30" height="30" as="geometry" />
        </mxCell>
        <mxCell id="8A_3W3rXBTb7RAuILj-C-117" value="M" style="text;html=1;align=center;verticalAlign=middle;resizable=0;points=[];autosize=1;strokeColor=none;fillColor=none;" vertex="1" parent="1">
          <mxGeometry x="385" y="908" width="30" height="30" as="geometry" />
        </mxCell>
        <mxCell id="8A_3W3rXBTb7RAuILj-C-118" value="1" style="text;html=1;align=center;verticalAlign=middle;resizable=0;points=[];autosize=1;strokeColor=none;fillColor=none;" vertex="1" parent="1">
          <mxGeometry x="525" y="88" width="30" height="30" as="geometry" />
        </mxCell>
        <mxCell id="8A_3W3rXBTb7RAuILj-C-119" value="" style="endArrow=none;html=1;rounded=0;entryX=1;entryY=0.5;entryDx=0;entryDy=0;" edge="1" parent="1" target="8A_3W3rXBTb7RAuILj-C-2">
          <mxGeometry width="50" height="50" relative="1" as="geometry">
            <mxPoint x="880" y="130" as="sourcePoint" />
            <mxPoint x="930" y="80" as="targetPoint" />
            <Array as="points">
              <mxPoint x="880" y="70" />
            </Array>
          </mxGeometry>
        </mxCell>
        <mxCell id="8A_3W3rXBTb7RAuILj-C-120" value="M" style="text;html=1;align=center;verticalAlign=middle;resizable=0;points=[];autosize=1;strokeColor=none;fillColor=none;" vertex="1" parent="1">
          <mxGeometry x="855" y="98" width="30" height="30" as="geometry" />
        </mxCell>
        <mxCell id="8A_3W3rXBTb7RAuILj-C-121" value="1" style="text;html=1;align=center;verticalAlign=middle;resizable=0;points=[];autosize=1;strokeColor=none;fillColor=none;" vertex="1" parent="1">
          <mxGeometry x="805" y="448" width="30" height="30" as="geometry" />
        </mxCell>
        <mxCell id="8A_3W3rXBTb7RAuILj-C-122" value="1" style="text;html=1;align=center;verticalAlign=middle;resizable=0;points=[];autosize=1;strokeColor=none;fillColor=none;" vertex="1" parent="1">
          <mxGeometry x="845" y="448" width="30" height="30" as="geometry" />
        </mxCell>
        <mxCell id="8A_3W3rXBTb7RAuILj-C-123" value="1" style="text;html=1;align=center;verticalAlign=middle;resizable=0;points=[];autosize=1;strokeColor=none;fillColor=none;" vertex="1" parent="1">
          <mxGeometry x="755" y="448" width="30" height="30" as="geometry" />
        </mxCell>
        <mxCell id="8A_3W3rXBTb7RAuILj-C-124" value="1" style="text;html=1;align=center;verticalAlign=middle;resizable=0;points=[];autosize=1;strokeColor=none;fillColor=none;" vertex="1" parent="1">
          <mxGeometry x="715" y="498" width="30" height="30" as="geometry" />
        </mxCell>
        <mxCell id="8A_3W3rXBTb7RAuILj-C-125" value="1" style="text;html=1;align=center;verticalAlign=middle;resizable=0;points=[];autosize=1;strokeColor=none;fillColor=none;" vertex="1" parent="1">
          <mxGeometry x="815" y="528" width="30" height="30" as="geometry" />
        </mxCell>
        <mxCell id="8A_3W3rXBTb7RAuILj-C-127" value="1" style="text;html=1;align=center;verticalAlign=middle;resizable=0;points=[];autosize=1;strokeColor=none;fillColor=none;" vertex="1" parent="1">
          <mxGeometry x="725" y="518" width="30" height="30" as="geometry" />
        </mxCell>
        <mxCell id="8A_3W3rXBTb7RAuILj-C-128" value="1" style="text;html=1;align=center;verticalAlign=middle;resizable=0;points=[];autosize=1;strokeColor=none;fillColor=none;" vertex="1" parent="1">
          <mxGeometry x="865" y="508" width="30" height="30" as="geometry" />
        </mxCell>
        <mxCell id="8A_3W3rXBTb7RAuILj-C-129" value="1" style="text;html=1;align=center;verticalAlign=middle;resizable=0;points=[];autosize=1;strokeColor=none;fillColor=none;" vertex="1" parent="1">
          <mxGeometry x="815" y="738" width="30" height="30" as="geometry" />
        </mxCell>
        <mxCell id="8A_3W3rXBTb7RAuILj-C-130" value="1" style="text;html=1;align=center;verticalAlign=middle;resizable=0;points=[];autosize=1;strokeColor=none;fillColor=none;" vertex="1" parent="1">
          <mxGeometry x="715" y="448" width="30" height="30" as="geometry" />
        </mxCell>
        <mxCell id="8A_3W3rXBTb7RAuILj-C-131" value="&amp;nbsp;m" style="text;html=1;align=center;verticalAlign=middle;resizable=0;points=[];autosize=1;strokeColor=none;fillColor=none;" vertex="1" parent="1">
          <mxGeometry x="1040" y="588" width="40" height="30" as="geometry" />
        </mxCell>
        <mxCell id="8A_3W3rXBTb7RAuILj-C-132" value="m" style="text;html=1;align=center;verticalAlign=middle;resizable=0;points=[];autosize=1;strokeColor=none;fillColor=none;" vertex="1" parent="1">
          <mxGeometry x="835" y="178" width="30" height="30" as="geometry" />
        </mxCell>
        <mxCell id="8A_3W3rXBTb7RAuILj-C-133" value="m" style="text;html=1;align=center;verticalAlign=middle;resizable=0;points=[];autosize=1;strokeColor=none;fillColor=none;" vertex="1" parent="1">
          <mxGeometry x="905" y="188" width="30" height="30" as="geometry" />
        </mxCell>
        <mxCell id="8A_3W3rXBTb7RAuILj-C-134" value="m" style="text;html=1;align=center;verticalAlign=middle;resizable=0;points=[];autosize=1;strokeColor=none;fillColor=none;" vertex="1" parent="1">
          <mxGeometry x="825" y="138" width="30" height="30" as="geometry" />
        </mxCell>
        <mxCell id="8A_3W3rXBTb7RAuILj-C-135" value="M" style="text;html=1;align=center;verticalAlign=middle;resizable=0;points=[];autosize=1;strokeColor=none;fillColor=none;" vertex="1" parent="1">
          <mxGeometry x="495" y="168" width="30" height="30" as="geometry" />
        </mxCell>
        <mxCell id="8A_3W3rXBTb7RAuILj-C-136" value="M" style="text;html=1;align=center;verticalAlign=middle;resizable=0;points=[];autosize=1;strokeColor=none;fillColor=none;" vertex="1" parent="1">
          <mxGeometry x="575" y="148" width="30" height="30" as="geometry" />
        </mxCell>
        <mxCell id="8A_3W3rXBTb7RAuILj-C-137" value="M" style="text;html=1;align=center;verticalAlign=middle;resizable=0;points=[];autosize=1;strokeColor=none;fillColor=none;" vertex="1" parent="1">
          <mxGeometry x="525" y="168" width="30" height="30" as="geometry" />
        </mxCell>
        <mxCell id="8A_3W3rXBTb7RAuILj-C-138" value="M" style="text;html=1;align=center;verticalAlign=middle;resizable=0;points=[];autosize=1;strokeColor=none;fillColor=none;" vertex="1" parent="1">
          <mxGeometry x="895" y="98" width="30" height="30" as="geometry" />
        </mxCell>
      </root>
    </mxGraphModel>
  </diagram>
</mxfile>
